<?xml version="1.0" encoding="UTF-8" standalone="no"?>
<!-- Created with Inkscape (http://www.inkscape.org/) -->

<svg
   version="1.1"
   id="svg2"
   width="1080"
   height="1080"
   viewBox="0 0 1080 1080"
   xmlns="http://www.w3.org/2000/svg"
   xmlns:svg="http://www.w3.org/2000/svg">
  <defs
     id="defs6">
    <clipPath
       clipPathUnits="userSpaceOnUse"
       id="clipPath18">
      <path
         d="M 0,0 H 3375 V 3375 H 0 Z"
         clip-rule="evenodd"
         id="path16" />
    </clipPath>
    <clipPath
       clipPathUnits="userSpaceOnUse"
       id="clipPath30">
      <path
         d="M 0,0 H 3375 V 3375 H 0 Z"
         clip-rule="evenodd"
         id="path28" />
    </clipPath>
    <clipPath
       clipPathUnits="userSpaceOnUse"
       id="clipPath42">
      <path
         d="M 789.61761,102.09261 H 2645.8676 V 2420.8426 H 789.61761 Z"
         clip-rule="evenodd"
         id="path40" />
    </clipPath>
    <clipPath
       clipPathUnits="userSpaceOnUse"
       id="clipPath54">
      <path
         d="M 525.52228,2069.8271 H 3225.5223 v 1203.125 H 525.52228 Z"
         clip-rule="evenodd"
         id="path52" />
    </clipPath>
  </defs>
  <g
     id="g8"
     transform="matrix(1.3333333,0,0,-1.3333333,0,1090.56)">
    <g
       id="g10"
       transform="matrix(0.23999999,0,0,-0.23999999,0,817.91998)">
      <g
         id="g12">
        <g
           id="g14"
           clip-path="url(#clipPath18)">
          <g
             id="g20"
             transform="scale(3.125)">
            <path
               d="M 0,0 H 1080 V 1080 H 0 Z"
               style="fill:#ffffff;fill-opacity:1;fill-rule:nonzero;stroke:none"
               id="path22" />
          </g>
        </g>
      </g>
      <g
         id="g24">
        <g
           id="g26"
           clip-path="url(#clipPath30)">
          <g
             id="g32"
             transform="scale(3.125)">
            <path
               d="M 0,0 H 1080 V 1080 H 0 Z"
               style="fill:#000000;fill-opacity:1;fill-rule:nonzero;stroke:none"
               id="path34" />
          </g>
        </g>
      </g>
      <g
         id="g36">
        <g
           id="g38"
           clip-path="url(#clipPath42)">
          <g
             id="g44"
             transform="matrix(38.905201,0,0,38.905201,472.15607,47.625336)">
            <path
               d="M 13.18,34.91 13.24,35 31.240001,60.59 c 0.02329,0.03001 0.04822,0.05861 0.07477,0.08578 0.02655,0.02717 0.05456,0.05275 0.08403,0.07673 0.02947,0.02398 0.0602,0.0462 0.0922,0.06668 0.032,0.02048 0.06506,0.03907 0.09918,0.05578 0.03412,0.01671 0.06908,0.03143 0.104873,0.04415 0.0358,0.01273 0.0722,0.02338 0.109211,0.03195 0.03701,0.0086 0.07439,0.01502 0.112133,0.01934 0.03775,0.0043 0.07561,0.0065 0.113606,0.0065 0.03799,0 0.07586,-0.0022 0.113609,-0.0065 0.03775,-0.0043 0.07512,-0.01076 0.112133,-0.01934 0.03701,-0.0086 0.07341,-0.01923 0.109207,-0.03195 0.0358,-0.01272 0.07076,-0.02744 0.104878,-0.04415 0.03412,-0.01671 0.06718,-0.03531 0.09918,-0.05578 0.032,-0.02048 0.06273,-0.04271 0.0922,-0.06668 0.02947,-0.02398 0.05748,-0.04956 0.08403,-0.07673 0.02655,-0.02717 0.05147,-0.05577 0.07477,-0.08578 L 50.759998,35 50.82,34.91 c 0.224811,-0.407017 0.436199,-0.820885 0.634159,-1.241612 0.19796,-0.420726 0.382076,-0.847431 0.552353,-1.280109 0.170276,-0.432674 0.326347,-0.870413 0.468219,-1.313213 0.141877,-0.442801 0.269253,-0.889735 0.382126,-1.340802 0.112877,-0.451063 0.211022,-0.905311 0.29443,-1.362743 0.0834,-0.457434 0.151898,-0.917089 0.205483,-1.378965 0.05358,-0.461874 0.09214,-0.925002 0.115676,-1.38938 0.02354,-0.464378 0.032,-0.929031 0.02539,-1.393959 -0.0066,-0.464926 -0.02828,-0.92915 -0.06501,-1.39267 -0.03673,-0.46352 -0.08844,-0.925363 -0.155136,-1.385532 -0.0667,-0.460165 -0.148235,-0.917685 -0.244613,-1.372562 -0.09638,-0.454876 -0.207398,-0.906151 -0.333058,-1.353827 -0.125656,-0.447672 -0.265686,-0.890802 -0.42009,-1.329389 -0.154407,-0.43859 -0.322868,-0.871712 -0.505378,-1.29937 -0.182507,-0.427657 -0.378685,-0.848952 -0.588532,-1.263882 -0.209842,-0.414929 -0.432911,-0.822624 -0.669204,-1.223082 -0.236294,-0.400459 -0.485314,-0.792838 -0.747067,-1.177138 -0.261749,-0.3843 -0.535679,-0.759715 -0.821789,-1.126243 -0.286106,-0.366529 -0.583793,-0.7234 -0.893055,-1.070614 C 47.745636,9.8676929 47.425446,9.5308657 47.09433,9.2044249 46.763218,8.877985 46.421871,8.5626173 46.070293,8.2583227 45.718716,7.9540291 45.357647,7.6614485 44.987087,7.3805804 44.616531,7.0997128 44.237259,6.8311486 43.849274,6.5748882 43.461292,6.3186278 43.065411,6.0752096 42.661633,5.8446336 42.257854,5.614058 41.847031,5.3968096 41.429157,5.1928878 41.011284,4.988966 40.587246,4.7988005 40.157036,4.6223907 39.726826,4.4459815 39.291348,4.2836986 38.850609,4.1355424 38.40987,3.987386 37.96479,3.8536682 37.515377,3.7343886 37.065964,3.6151092 36.613159,3.510519 36.156956,3.4206178 35.700756,3.3307166 35.242123,3.2556934 34.781055,3.1955483 34.319988,3.1354036 33.857456,3.0902631 33.393459,3.060127 32.929459,3.0299911 32.464973,3.0149233 32,3.0149231 c -0.464973,0 -0.929459,0.015068 -1.393456,0.045204 -0.463994,0.030136 -0.926527,0.075276 -1.387596,0.1354213 -0.461069,0.060145 -0.919702,0.135168 -1.375904,0.2250692 C 27.386843,3.5105186 26.934036,3.615109 26.484621,3.7343884 26.035208,3.8536677 25.590132,3.9873855 25.149395,4.1355419 24.708656,4.2836981 24.273182,4.445981 23.842972,4.6223903 23.412764,4.7988 22.988722,4.9889655 22.57085,5.1928873 22.152977,5.3968086 21.742151,5.6140571 21.338375,5.8446331 20.934599,6.0752091 20.538717,6.3186274 20.150734,6.5748882 19.762751,6.8311486 19.38348,7.0997128 19.012918,7.3805809 18.642359,7.661449 18.28129,7.9540296 17.929714,8.2583227 c -0.351576,0.3042946 -0.692922,0.6196623 -1.02404,0.9461022 -0.331116,0.3264408 -0.651304,0.663268 -0.960566,1.0104831 -0.309261,0.347214 -0.606947,0.704085 -0.893055,1.070614 -0.286108,0.366528 -0.560038,0.741943 -0.821789,1.126243 -0.261751,0.3843 -0.510775,0.776679 -0.74707,1.177138 -0.236293,0.400457 -0.459362,0.808151 -0.669203,1.22308 -0.209844,0.41493 -0.40602,0.836225 -0.588528,1.263882 -0.182509,0.42766 -0.350966,0.860782 -0.505375,1.29937 -0.154408,0.438587 -0.294441,0.881717 -0.420099,1.329389 -0.125657,0.447676 -0.236675,0.898951 -0.333054,1.353825 -0.09638,0.454878 -0.177915,0.912397 -0.244611,1.372562 -0.0667,0.460169 -0.118407,0.922013 -0.155137,1.385533 -0.03673,0.463522 -0.0584,0.927745 -0.06501,1.392671 -0.0066,0.464928 0.0019,0.929581 0.02539,1.393959 0.02354,0.464379 0.06209,0.927506 0.115678,1.389382 0.05358,0.461876 0.122077,0.921531 0.205483,1.378965 0.0834,0.45743 0.181547,0.911678 0.294423,1.362743 0.112877,0.451067 0.240252,0.898001 0.382127,1.340802 0.141874,0.4428 0.297948,0.880539 0.468223,1.313213 0.170275,0.432678 0.354392,0.859383 0.552352,1.280109 C 12.743804,34.089115 12.95519,34.502983 13.18,34.91 Z M 32,15.53 c 0.147293,0 0.294498,0.0036 0.441612,0.01084 0.147114,0.0072 0.293965,0.01806 0.440544,0.0325 0.14658,0.01444 0.292721,0.03246 0.438416,0.05407 0.145698,0.02161 0.290779,0.04678 0.435238,0.07552 0.144459,0.02873 0.288128,0.061 0.431007,0.09679 0.14288,0.03579 0.284794,0.07506 0.425747,0.117818 0.140949,0.04276 0.280762,0.08895 0.419445,0.138567 0.138676,0.04962 0.276058,0.102613 0.41214,0.158979 0.136082,0.05637 0.270695,0.116036 0.403843,0.179011 0.133152,0.06297 0.264675,0.12918 0.394577,0.198614 0.129902,0.06943 0.258018,0.142011 0.38435,0.217733 0.126335,0.07572 0.250736,0.154501 0.373207,0.236332 0.122471,0.08183 0.242855,0.166616 0.36116,0.254358 0.118309,0.08774 0.234394,0.178334 0.348252,0.271775 0.113857,0.09344 0.225357,0.189617 0.334491,0.288534 0.109135,0.09891 0.215779,0.200447 0.319931,0.304598 0.104149,0.10415 0.205681,0.210794 0.3046,0.319931 0.09891,0.109136 0.195091,0.220634 0.288532,0.334493 0.09344,0.113856 0.184029,0.229937 0.271771,0.348242 0.08774,0.118305 0.172527,0.238693 0.25436,0.361162 0.08183,0.122469 0.160606,0.24687 0.236332,0.373207 0.07572,0.126337 0.148304,0.254456 0.217735,0.384356 0.06943,0.1299 0.135632,0.261423 0.198609,0.394573 0.06297,0.13315 0.122642,0.267765 0.179012,0.403845 0.05637,0.13608 0.10936,0.273462 0.158981,0.412144 0.04962,0.138681 0.09581,0.278497 0.138565,0.419447 0.04275,0.140947 0.08203,0.282861 0.117817,0.425739 0.03579,0.142877 0.06805,0.286547 0.09679,0.431009 0.02874,0.144461 0.05391,0.289541 0.07552,0.435238 0.02161,0.145697 0.03964,0.291838 0.05408,0.438421 0.01444,0.146582 0.02527,0.293431 0.0325,0.440546 0.0072,0.147116 0.01084,0.294318 0.01084,0.441609 0,0.147291 -0.0036,0.294494 -0.01084,0.44161 -0.0072,0.147112 -0.01806,0.293959 -0.0325,0.440542 -0.01444,0.146582 -0.03246,0.292723 -0.05408,0.43842 -0.02161,0.145696 -0.04678,0.290777 -0.07552,0.435238 -0.02874,0.144462 -0.061,0.288133 -0.09679,0.431011 -0.03579,0.142877 -0.07506,0.28479 -0.117817,0.425741 -0.04275,0.140947 -0.08894,0.280764 -0.138565,0.419445 -0.04962,0.138681 -0.102615,0.276062 -0.158981,0.412142 -0.05637,0.13608 -0.116039,0.270693 -0.179012,0.403843 -0.06298,0.13315 -0.129178,0.264675 -0.198609,0.394575 -0.06943,0.1299 -0.14201,0.258016 -0.217735,0.384353 -0.07573,0.126338 -0.154503,0.250741 -0.236332,0.373209 -0.08183,0.122469 -0.166618,0.242856 -0.25436,0.361163 -0.08774,0.118305 -0.17833,0.234388 -0.271771,0.348247 -0.09344,0.113857 -0.189621,0.225353 -0.288532,0.33449 -0.09892,0.109135 -0.200451,0.215778 -0.3046,0.319929 -0.104152,0.104151 -0.210796,0.205683 -0.319931,0.304598 -0.109134,0.09892 -0.220634,0.195093 -0.334491,0.288536 -0.113858,0.09344 -0.229943,0.184031 -0.348248,0.271772 -0.118305,0.08774 -0.238693,0.172528 -0.36116,0.254359 -0.122471,0.08183 -0.246872,0.160606 -0.373207,0.236332 -0.126336,0.07572 -0.254452,0.1483 -0.384354,0.217731 -0.129902,0.06943 -0.261425,0.135636 -0.394577,0.198612 -0.133148,0.06298 -0.267761,0.122647 -0.403843,0.179013 -0.136082,0.05637 -0.273464,0.109359 -0.41214,0.158977 -0.138683,0.04962 -0.278496,0.09581 -0.419445,0.138569 -0.140953,0.04275 -0.282867,0.08203 -0.425747,0.117817 -0.142879,0.03579 -0.286548,0.06805 -0.431007,0.09679 -0.144459,0.02874 -0.28954,0.05391 -0.435238,0.07552 -0.145695,0.02161 -0.291836,0.03964 -0.438416,0.05408 -0.146579,0.01444 -0.29343,0.02527 -0.440544,0.03249 -0.147114,0.0072 -0.294319,0.01084 -0.441612,0.01084 -0.147291,0 -0.294495,-0.0036 -0.441608,-0.01084 -0.147114,-0.0072 -0.293961,-0.01806 -0.440543,-0.03249 -0.146581,-0.01444 -0.292722,-0.03247 -0.438421,-0.05408 -0.145698,-0.02161 -0.290779,-0.04679 -0.435242,-0.07552 -0.14446,-0.02874 -0.288131,-0.061 -0.431009,-0.09679 -0.142876,-0.03579 -0.284788,-0.07506 -0.425737,-0.117817 -0.140951,-0.04276 -0.280766,-0.08895 -0.419447,-0.138569 -0.138684,-0.04962 -0.276066,-0.102611 -0.412146,-0.158977 -0.13608,-0.05637 -0.270695,-0.116036 -0.403845,-0.179013 -0.13315,-0.06298 -0.264673,-0.129181 -0.394573,-0.198612 -0.1299,-0.06943 -0.258018,-0.14201 -0.384354,-0.217731 -0.126337,-0.07573 -0.25074,-0.154503 -0.373209,-0.236332 -0.122468,-0.08183 -0.242855,-0.166619 -0.36116,-0.254359 -0.118305,-0.08774 -0.234386,-0.178333 -0.348245,-0.271772 -0.11386,-0.09344 -0.225356,-0.189621 -0.33449,-0.288536 -0.109137,-0.09891 -0.215782,-0.200447 -0.319933,-0.304598 -0.104151,-0.104151 -0.205685,-0.210794 -0.3046,-0.319929 -0.09891,-0.109137 -0.195093,-0.220633 -0.288532,-0.334492 -0.09344,-0.113859 -0.184035,-0.22994 -0.271776,-0.348245 -0.08774,-0.118307 -0.172528,-0.238694 -0.254359,-0.361163 -0.08183,-0.122468 -0.160608,-0.246871 -0.236332,-0.373207 -0.07572,-0.126337 -0.148298,-0.254455 -0.217731,-0.384353 -0.06943,-0.129902 -0.135637,-0.261427 -0.198614,-0.394577 -0.06298,-0.13315 -0.122645,-0.267763 -0.179011,-0.403843 -0.05637,-0.13608 -0.109361,-0.273461 -0.158983,-0.412142 -0.04962,-0.138681 -0.09581,-0.278498 -0.138565,-0.419445 -0.04276,-0.140951 -0.08203,-0.282864 -0.117821,-0.425741 -0.03579,-0.142878 -0.06805,-0.286549 -0.09678,-0.431011 -0.02873,-0.144461 -0.05391,-0.289542 -0.07552,-0.435238 -0.02161,-0.145697 -0.03963,-0.291838 -0.05407,-0.43842 -0.01444,-0.146583 -0.02527,-0.293432 -0.0325,-0.440544 C 23.003614,24.824493 23,24.67729 23,24.529999 c 0,-0.147291 0.0036,-0.294493 0.01084,-0.441609 0.0072,-0.147115 0.01806,-0.293964 0.03249,-0.440546 0.01444,-0.146583 0.03246,-0.292724 0.05408,-0.438421 0.02161,-0.145697 0.04679,-0.290777 0.07552,-0.435238 0.02873,-0.144462 0.061,-0.288132 0.09679,-0.431009 0.03579,-0.142878 0.07506,-0.284792 0.117821,-0.425739 0.04275,-0.14095 0.08894,-0.280766 0.138563,-0.419447 0.04962,-0.138682 0.102615,-0.276062 0.158981,-0.412142 0.05636,-0.13608 0.116036,-0.270695 0.179011,-0.403845 0.06298,-0.13315 0.129179,-0.264673 0.198612,-0.394573 0.06943,-0.1299 0.14201,-0.258019 0.217731,-0.384356 0.07572,-0.126335 0.154501,-0.250738 0.236332,-0.373207 0.08183,-0.122469 0.166619,-0.242857 0.254359,-0.361162 0.08774,-0.118307 0.178333,-0.234388 0.271776,-0.348244 0.09344,-0.113859 0.189617,-0.225357 0.288532,-0.334493 0.09892,-0.109137 0.200449,-0.215781 0.3046,-0.319931 0.104151,-0.104151 0.210794,-0.205685 0.319931,-0.304598 0.109136,-0.09892 0.220632,-0.195095 0.334492,-0.288534 0.113859,-0.09344 0.22994,-0.184033 0.348243,-0.271775 0.118307,-0.08774 0.238694,-0.172527 0.361162,-0.254358 0.122469,-0.08183 0.246872,-0.160606 0.373209,-0.23633 0.126336,-0.07572 0.254454,-0.148302 0.384354,-0.217735 0.1299,-0.06943 0.261423,-0.13564 0.394573,-0.198614 0.13315,-0.06298 0.267767,-0.122645 0.403847,-0.179011 0.13608,-0.05637 0.273462,-0.10936 0.412144,-0.158979 0.138681,-0.04962 0.278496,-0.09581 0.419447,-0.138566 0.140947,-0.04276 0.28286,-0.08203 0.425737,-0.11782 0.142878,-0.03579 0.286547,-0.06805 0.431007,-0.09679 0.144461,-0.02873 0.289542,-0.05391 0.435238,-0.07552 0.145699,-0.02161 0.29184,-0.03964 0.438424,-0.05407 0.146581,-0.01444 0.293428,-0.02527 0.440542,-0.0325 C 31.705503,15.533613 31.852707,15.53 32,15.53 Z"
               style="fill:#c2b64f;fill-opacity:1;fill-rule:nonzero;stroke:none"
               id="path46" />
          </g>
        </g>
      </g>
      <g
         id="g48">
        <g
           id="g50"
           clip-path="url(#clipPath54)">
          <g
             id="g56"
             transform="matrix(2.7717893,0,0,2.7717893,-896.4057,-98.345215)">
            <path
               d="m 1487.0313,1216.1914 -202.4102,-220.37109 -18,39.19919 -78.4102,-82.25778 -59.1328,62.33988 -27.4687,-44.3516 -144.85159,210.8516 -89.30859,-94.7618 -9.80859,33.5821 -85.23047,-61.1016 -98.42969,58.1485 -7.20313,-23.5469 -153.80078,100.9492 c -0.0234,-1.6523 0.625,-3.3398 2.08594,-4.8516 L 777.94141,919.58984 c 4.36328,-4.48828 13.16797,-4.14062 16.91406,0.67188 l 154.33594,198.11718 c 4.20703,5.4024 14.4414,5.0195 17.96484,-0.668 L 1171.5117,788.30859 c 3.6367,-5.86718 14.2969,-6.03906 18.2383,-0.28906 l 297.2813,428.17187"
               style="fill:#c2b64f;fill-opacity:1;fill-rule:nonzero;stroke:none"
               id="path58" />
          </g>
        </g>
      </g>
    </g>
    <path
       d="M 189.50821,236.75662 H 634.83713 V 793.41775 H 189.50821 Z"
       style="fill:#000000;fill-opacity:0;fill-rule:nonzero;stroke:none"
       id="path60" />
    <path
       d="m 126.12535,32.422234 h 648 V 321.16146 h -648 z"
       style="fill:#000000;fill-opacity:0;fill-rule:nonzero;stroke:none"
       id="path62" />
  </g>
</svg>
